<?xml version="1.0" standalone="no"?>
<!DOCTYPE svg PUBLIC "-//W3C//DTD SVG 20010904//EN"
 "http://www.w3.org/TR/2001/REC-SVG-20010904/DTD/svg10.dtd">
<svg version="1.0" xmlns="http://www.w3.org/2000/svg"
 width="400.000000pt" height="400.000000pt" viewBox="0 0 400.000000 400.000000"
 preserveAspectRatio="xMidYMid meet">

<g transform="translate(0.000000,400.000000) scale(0.100000,-0.100000)"
fill="#000000" stroke="none">
<path d="M2611 2985 c-34 -11 -70 -40 -161 -129 l-117 -116 -56 0 c-101 0
-155 -18 -209 -68 -26 -24 -48 -52 -48 -61 0 -9 14 -36 30 -61 16 -25 30 -50
30 -55 0 -6 -22 -33 -50 -60 -38 -38 -48 -54 -44 -71 5 -18 -3 -29 -38 -53
-23 -17 -55 -42 -71 -56 -15 -14 -33 -26 -40 -27 -6 0 -23 -2 -37 -4 -14 -1
-41 -5 -61 -8 -31 -5 -41 0 -85 37 -27 24 -61 50 -76 60 -23 14 -28 25 -28 58
0 81 -56 150 -136 167 l-39 8 2 69 c1 37 7 79 14 92 21 38 3 37 -46 -2 -125
-103 -229 -279 -269 -455 -22 -95 -22 -265 0 -360 58 -258 227 -468 465 -579
292 -137 627 -95 886 111 58 46 123 116 123 133 0 4 -11 5 -25 3 -19 -4 -30 2
-51 30 -51 66 -163 90 -220 47 -27 -21 -32 -19 -47 18 -15 36 -79 97 -102 97
-8 0 -17 12 -20 28 -4 15 -13 42 -21 60 -8 18 -14 43 -14 56 0 13 -5 37 -11
55 -10 28 -8 36 17 74 16 23 34 47 40 52 6 6 21 25 34 44 13 18 37 39 54 46
17 8 51 34 76 59 24 25 48 46 52 46 5 0 27 -13 50 -30 55 -40 78 -38 122 11
47 52 56 75 66 183 l9 88 119 122 c108 110 120 126 132 174 15 64 9 160 -11
173 -21 13 -138 10 -188 -6z m158 -20 c10 -11 -158 -165 -180 -165 -5 0 -7 -5
-4 -10 4 -6 -8 -29 -25 -53 l-31 -42 26 -11 c25 -10 23 -11 -49 -53 -42 -24
-80 -41 -86 -39 -6 2 -56 -41 -110 -96 -95 -96 -99 -100 -118 -83 -10 9 -22
17 -27 17 -4 0 -32 -23 -62 -51 -52 -49 -55 -51 -74 -34 -10 10 -19 23 -19 29
0 7 23 34 50 61 28 27 50 53 50 58 0 5 -13 27 -28 50 -46 67 -46 72 0 112 46
39 91 55 158 55 85 0 109 14 215 120 107 108 132 126 198 140 42 9 104 6 116
-5z m-582 -587 c13 -12 23 -25 23 -30 0 -4 -20 -29 -45 -54 -35 -38 -43 -52
-39 -71 5 -19 -1 -31 -32 -60 -135 -123 -205 -142 -198 -53 3 54 106 193 145
198 15 2 45 22 70 48 24 24 45 44 48 44 3 0 15 -10 28 -22z m-847 -67 c0 -6
-4 -13 -10 -16 -5 -3 -10 1 -10 9 0 9 5 16 10 16 6 0 10 -4 10 -9z m65 -322
c0 -7 -8 -15 -17 -17 -18 -3 -25 18 -11 32 10 10 28 1 28 -15z m175 -150 c8 0
2 -5 -15 -10 -16 -4 -40 -6 -54 -2 -23 6 -24 7 -6 14 11 5 29 6 40 4 11 -3 27
-5 35 -6z"/>
<path d="M2415 2690 c3 -5 8 -10 11 -10 2 0 4 5 4 10 0 6 -5 10 -11 10 -5 0
-7 -4 -4 -10z"/>
<path d="M2446 2673 c5 -5 12 -12 16 -18 4 -6 8 -2 8 8 0 9 -7 17 -17 17 -9 0
-12 -3 -7 -7z"/>
<path d="M2055 2900 c-3 -5 -1 -10 4 -10 6 0 11 5 11 10 0 6 -2 10 -4 10 -3 0
-8 -4 -11 -10z"/>
<path d="M1761 2835 c-2 -53 -8 -61 -61 -73 l-45 -10 37 -1 c60 -2 68 -8 69
-60 l1 -46 11 40 c18 59 24 65 75 66 l47 1 -50 10 c-27 5 -51 11 -54 13 -2 3
-10 26 -17 52 l-13 48 0 -40z"/>
<path d="M2728 2593 c7 -3 16 -2 19 1 4 3 -2 6 -13 5 -11 0 -14 -3 -6 -6z"/>
<path d="M1753 2374 c-8 -20 8 -36 26 -25 15 10 8 41 -9 41 -6 0 -13 -7 -17
-16z"/>
<path d="M2687 2253 c-12 -11 -8 -23 8 -23 8 0 15 7 15 15 0 16 -12 20 -23 8z"/>
<path d="M2357 1985 c-4 -8 -3 -16 1 -19 13 -8 35 11 28 23 -10 15 -23 14 -29
-4z"/>
<path d="M2668 1893 c7 -3 16 -2 19 1 4 3 -2 6 -13 5 -11 0 -14 -3 -6 -6z"/>
</g>
</svg>
