<?xml version="1.0" standalone="no"?>
<!DOCTYPE svg PUBLIC "-//W3C//DTD SVG 20010904//EN"
 "http://www.w3.org/TR/2001/REC-SVG-20010904/DTD/svg10.dtd">
<svg version="1.0" xmlns="http://www.w3.org/2000/svg"
 width="200.000000pt" height="200.000000pt" viewBox="0 0 200.000000 200.000000"
 preserveAspectRatio="xMidYMid meet">

<g transform="translate(0.000000,200.000000) scale(0.100000,-0.100000)"
fill="#000000" stroke="none">
<path d="M1315 1493 c-11 -3 -47 -31 -80 -63 -55 -52 -65 -58 -115 -64 -41 -4
-61 -12 -83 -34 -28 -28 -28 -29 -10 -60 18 -31 18 -31 -10 -60 -15 -15 -25
-31 -22 -34 11 -11 -72 -67 -105 -70 -28 -4 -43 2 -72 26 -24 19 -38 40 -38
54 0 27 -51 82 -76 82 -14 0 -16 8 -12 51 l5 50 -39 -38 c-102 -98 -149 -256
-117 -392 48 -211 264 -359 470 -322 103 18 216 80 256 140 14 22 14 24 -1 18
-10 -4 -19 1 -25 12 -15 28 -62 44 -93 32 -39 -15 -101 47 -117 117 -13 50
-12 52 20 97 18 25 37 45 43 45 5 0 22 12 37 26 27 26 28 26 58 8 26 -15 32
-16 47 -3 23 19 44 71 44 110 0 26 12 45 59 94 63 65 75 90 69 146 -3 31 -6
34 -38 36 -19 0 -44 -1 -55 -4z m63 -11 c13 -9 -17 -41 -68 -75 -13 -10 -21
-17 -16 -17 5 0 1 -9 -10 -21 -15 -16 -16 -22 -5 -29 10 -6 2 -14 -30 -30
l-44 -23 20 23 c14 16 16 24 7 27 -6 3 -9 10 -6 15 4 7 2 8 -5 4 -8 -6 -9 -12
-2 -20 17 -20 -94 -139 -121 -130 -14 4 -29 -3 -49 -22 -25 -24 -29 -25 -35
-10 -4 11 2 27 19 44 l26 27 -20 32 -20 31 28 20 c15 10 50 22 77 25 42 4 55
12 106 62 50 49 76 64 130 74 3 0 11 -3 18 -7z m-291 -340 c-15 -16 -24 -32
-20 -36 15 -14 -90 -91 -109 -79 -25 14 34 123 66 123 7 0 23 11 36 25 21 23
26 24 39 10 13 -13 12 -18 -12 -43z m-377 -146 c0 -3 -4 -8 -10 -11 -5 -3 -10
-1 -10 4 0 6 5 11 10 11 6 0 10 -2 10 -4z m83 -83 c-7 -2 -21 -2 -30 0 -10 3
-4 5 12 5 17 0 24 -2 18 -5z"/>
<path d="M881 1408 c-1 -21 -7 -28 -28 -31 l-28 -4 28 -2 c22 -1 27 -6 28 -28
l1 -28 7 25 c5 17 16 27 36 31 l30 6 -30 4 c-21 3 -31 11 -36 29 l-7 25 -1
-27z"/>
<path d="M880 1180 c0 -5 5 -10 10 -10 6 0 10 5 10 10 0 6 -4 10 -10 10 -5 0
-10 -4 -10 -10z"/>
<path d="M1345 1120 c-3 -5 -1 -10 4 -10 6 0 11 5 11 10 0 6 -2 10 -4 10 -3 0
-8 -4 -11 -10z"/>
<path d="M1180 990 c0 -5 5 -10 11 -10 5 0 7 5 4 10 -3 6 -8 10 -11 10 -2 0
-4 -4 -4 -10z"/>
</g>
</svg>
