<?xml version="1.0" standalone="no"?>
<!DOCTYPE svg PUBLIC "-//W3C//DTD SVG 20010904//EN"
 "http://www.w3.org/TR/2001/REC-SVG-20010904/DTD/svg10.dtd">
<svg version="1.0" xmlns="http://www.w3.org/2000/svg"
 width="200.000000pt" height="200.000000pt" viewBox="0 0 200.000000 200.000000"
 preserveAspectRatio="xMidYMid meet">

<g transform="translate(0.000000,200.000000) scale(0.100000,-0.100000)"
fill="#000000" stroke="none">
<path d="M1315 1493 c-11 -3 -47 -31 -80 -63 -55 -52 -65 -58 -115 -64 -41 -4
-61 -12 -83 -34 -28 -28 -28 -29 -10 -60 18 -31 18 -31 -10 -60 -15 -15 -25
-31 -22 -34 11 -11 -72 -67 -105 -70 -28 -4 -43 2 -72 26 -24 19 -38 40 -38
54 0 27 -51 82 -76 82 -14 0 -16 8 -12 51 l5 50 -39 -38 c-102 -98 -149 -256
-117 -392 48 -211 264 -359 470 -322 103 18 216 80 256 140 14 22 14 24 -1 18
-10 -4 -19 1 -25 12 -15 28 -62 44 -93 32 -39 -15 -101 47 -117 117 -13 50
-12 52 20 97 18 25 37 45 43 45 5 0 22 12 37 26 27 26 28 26 58 8 26 -15 32
-16 47 -3 23 19 44 71 44 110 0 26 12 45 59 94 63 65 75 90 69 146 -3 31 -6
34 -38 36 -19 0 -44 -1 -55 -4z m63 -11 c13 -9 -17 -41 -68 -75 -13 -10 -21
-17 -16 -17 5 0 1 -9 -10 -21 -15 -16 -16 -22 -5 -29 10 -6 2 -14 -30 -30
l-44 -23 20 23 c14 16 16 24 7 27 -6 3 -9 10 -6 15 4 7 2 8 -5 4 -8 -6 -9 -12
-2 -20 17 -20 -94 -139 -121 -130 -14 4 -29 -3 -49 -22 -25 -24 -29 -25 -35
-10 -4 11 2 27 19 44 l26 27 -20 32 -20 31 28 20 c15 10 50 22 77 25 42 4 55
12 106 62 50 49 76 64 130 74 3 0 11 -3 18 -7z m-291 -340 c-15 -16 -24 -32
-20 -36 15 -14 -90 -91 -109 -79 -25 14 34 123 66 123 7 0 23 11 36 25 21 23
26 24 39 10 13 -13 12 -18 -12 -43z m-377 -146 c0 -3 -4 -8 -10 -11 -5 -3 -10
-1 -10 4 0 6 5 11 10 11 6 0 10 -2 10 -4z m83 -83 c-7 -2 -21 -2 -30 0 -10 3
-4 5 12 5 17 0 24 -2 18 -5z"/>
<path d="M881 1408 c-1 -21 -7 -28 -28 -31 l-28 -4 28 -2 c22 -1 27 -6 28 -28
l1 -28 7 25 c5 17 16 27 36 31 l30 6 -30 4 c-21 3 -31 11 -36 29 l-7 25 -1
-27z"/>
<path d="M880 1180 c0 -5 5 -10 10 -10 6 0 10 5 10 10 0 6 -4 10 -10 10 -5 0
-10 -4 -10 -10z"/>
<path d="M1345 1120 c-3 -5 -1 -10 4 -10 6 0 11 5 11 10 0 6 -2 10 -4 10 -3 0
-8 -4 -11 -10z"/>
<path d="M1180 990 c0 -5 5 -10 11 -10 5 0 7 5 4 10 -3 6 -8 10 -11 10 -2 0
-4 -4 -4 -10z"/>
<path d="M1202 478 c-2 -64 -1 -68 20 -68 20 0 20 1 5 13 -11 8 -17 31 -20 67
-3 54 -3 54 -5 -12z"/>
<path d="M1252 478 c3 -62 3 -63 33 -65 20 -1 23 0 8 4 -19 3 -23 11 -23 39 0
27 4 34 20 34 11 0 20 5 20 10 0 6 -9 10 -20 10 -11 0 -20 7 -20 15 0 8 -5 15
-10 15 -7 0 -10 -24 -8 -62z"/>
<path d="M702 501 c-8 -5 -12 -23 -10 -47 3 -38 4 -39 46 -42 54 -4 58 -29 5
-35 l-38 -4 41 -1 c30 -2 44 2 48 14 10 27 7 99 -6 112 -14 14 -67 16 -86 3z
m78 -46 c0 -33 -2 -35 -35 -35 -33 0 -35 2 -35 35 0 33 2 35 35 35 33 0 35 -2
35 -35z"/>
<path d="M810 461 c0 -28 5 -51 10 -51 6 0 10 20 10 44 0 25 -4 48 -10 51 -6
4 -10 -13 -10 -44z"/>
<path d="M840 500 c0 -5 20 -10 45 -10 33 0 45 -4 45 -15 0 -11 -12 -15 -46
-15 -41 0 -45 -2 -42 -22 3 -20 10 -23 56 -26 l52 -3 0 38 c0 22 -5 44 -12 51
-14 14 -98 16 -98 2z m90 -65 c0 -10 -11 -15 -35 -15 -24 0 -35 5 -35 15 0 10
11 15 35 15 24 0 35 -5 35 -15z"/>
<path d="M960 461 c0 -28 5 -51 10 -51 6 0 10 18 10 40 0 39 1 40 34 40 34 0
35 -2 39 -42 4 -39 4 -38 3 7 l-1 50 -47 3 -48 3 0 -50z"/>
<path d="M1087 504 c-4 -4 -7 -27 -7 -50 l0 -43 42 -3 c54 -4 62 -25 11 -31
l-38 -4 43 -1 43 -2 -3 68 -3 67 -40 3 c-23 2 -44 0 -48 -4z m83 -49 c0 -34
-1 -35 -40 -35 -39 0 -40 1 -40 35 0 34 1 35 40 35 39 0 40 -1 40 -35z"/>
<path d="M821 308 c-1 -21 4 -28 17 -28 11 0 13 3 6 8 -7 4 -14 16 -17 27 -4
15 -5 14 -6 -7z"/>
<path d="M694 300 c1 -8 11 -16 24 -18 18 -3 22 1 21 20 -1 17 -3 18 -6 6 -5
-21 -30 -24 -36 -5 -2 7 -3 6 -3 -3z"/>
<path d="M792 300 c0 -14 2 -19 5 -12 2 6 2 18 0 25 -3 6 -5 1 -5 -13z"/>
<path d="M901 303 c-1 -17 5 -23 22 -24 21 0 21 -1 2 -10 l-20 -9 20 3 c14 1
20 10 22 32 1 17 -1 22 -3 13 -3 -10 -12 -18 -19 -18 -7 0 -16 8 -18 18 -4 13
-5 11 -6 -5z"/>
<path d="M1000 306 c0 -8 -8 -17 -17 -19 -14 -4 -12 -5 5 -6 16 -1 22 5 22 19
0 11 -2 20 -5 20 -3 0 -5 -6 -5 -14z"/>
<path d="M1031 303 c-1 -18 4 -23 22 -22 15 1 17 3 5 6 -9 2 -19 12 -21 21 -3
12 -5 10 -6 -5z"/>
<path d="M1222 301 c12 -19 28 -19 28 0 0 6 -4 7 -10 4 -5 -3 -10 -1 -10 4 0
6 -5 11 -10 11 -6 0 -5 -8 2 -19z"/>
<path d="M1310 306 c0 -8 -8 -17 -17 -19 -14 -4 -12 -5 5 -6 16 -1 22 5 22 19
0 11 -2 20 -5 20 -3 0 -5 -6 -5 -14z"/>
<path d="M1341 303 c-1 -18 4 -23 22 -22 15 1 17 3 5 6 -9 2 -19 12 -21 21 -3
12 -5 10 -6 -5z"/>
<path d="M1195 290 c3 -5 8 -10 11 -10 2 0 4 5 4 10 0 6 -5 10 -11 10 -5 0 -7
-4 -4 -10z"/>
<path d="M633 283 c9 -2 23 -2 30 0 6 3 -1 5 -18 5 -16 0 -22 -2 -12 -5z"/>
<path d="M1358 263 c7 -3 16 -2 19 1 4 3 -2 6 -13 5 -11 0 -14 -3 -6 -6z"/>
</g>
</svg>
